<?xml version="1.0" encoding="UTF-8"?>
<svg width="122px" height="16px" viewBox="0 0 122 16" version="1.1" xmlns="http://www.w3.org/2000/svg" xmlns:xlink="http://www.w3.org/1999/xlink">
    <!-- Generator: Sketch 50.2 (55047) - http://www.bohemiancoding.com/sketch -->
    <title>pyradise-logo</title>
    <desc>Created with Sketch.</desc>
    <defs></defs>
    <g id="Page-1" stroke="none" stroke-width="1" fill="none" fill-rule="evenodd">
        <g id="pyradise-logo" fill-rule="nonzero">
            <g id="logo">
                <polygon id="Combined-Shape" fill="#304F7C" points="12.75 9.05238794 8.56816775 15.7407407 5.59756098 15.7407407 11.2679768 6.67157223"></polygon>
                <polygon id="Combined-Shape" fill="#182A43" points="0 15.7407407 7.01432733 4.45547054 5.0747892 1.33497003 7.21638777 0 8.50000002 2.06518892 9.78361224 0 11.9252108 1.33497003 9.98567268 4.45547054 17 15.7407407 14.0286546 15.7407407 8.50000002 6.84575214 2.97134535 15.7407407"></polygon>
            </g>
            <path d="M23,2.29032256 L27.1988389,2.29032256 C27.7842313,2.29032256 28.3376849,2.34408548 28.8592163,2.45161287 C29.3807477,2.55914031 29.8357504,2.74462232 30.2242381,3.00806449 C30.6127258,3.27150667 30.9213826,3.62634183 31.1502178,4.07258064 C31.379053,4.51881941 31.4934689,5.08064174 31.4934689,5.75806449 C31.4934689,6.4247345 31.3870355,6.98386868 31.1741655,7.43548386 C30.9612956,7.887099 30.6686038,8.24731046 30.2960814,8.516129 C29.9235589,8.78494754 29.4818604,8.97580589 28.9709725,9.08870965 C28.4600846,9.20161346 27.906631,9.25806452 27.3105951,9.25806452 L25.4905661,9.25806452 L25.4905661,13.7096774 L23,13.7096774 L23,2.29032256 Z M25.4905661,7.12903223 L27.1509434,7.12903223 C27.3744569,7.12903223 27.5899845,7.10752708 27.7975327,7.0645161 C28.0050809,7.02150513 28.1913394,6.94892524 28.3563136,6.84677418 C28.5212878,6.74462312 28.6543295,6.60483959 28.7554428,6.42741933 C28.856556,6.2499991 28.9071118,6.02688303 28.9071118,5.75806449 C28.9071118,5.46774046 28.840591,5.23387186 28.7075473,5.05645159 C28.5745035,4.87903136 28.4042101,4.74193594 28.1966619,4.64516129 C27.9891137,4.5483866 27.7576211,4.48655925 27.5021771,4.45967739 C27.2467332,4.43279553 27.0019364,4.41935481 26.7677795,4.41935481 L25.4905661,4.41935481 L25.4905661,7.12903223 Z M39.0290275,8.83870967 L34.7822932,2.29032256 L37.8795356,2.29032256 L40.2743108,6.56451609 L42.8127723,2.29032256 L45.7663281,2.29032256 L41.5195936,8.83870967 L41.5195936,13.7096774 L39.0290275,13.7096774 L39.0290275,8.83870967 Z M49.78955,2.29032256 L54.1640057,2.29032256 C54.7387548,2.29032256 55.2842259,2.34677363 55.8004354,2.45967739 C56.316645,2.5725812 56.7689871,2.76075135 57.1574746,3.02419353 C57.5459625,3.2876357 57.8546191,3.64247086 58.0834545,4.08870967 C58.3122895,4.53494844 58.4267056,5.09139448 58.4267056,5.75806449 C58.4267056,6.56452016 58.2191606,7.24999715 57.8040639,7.8145161 C57.3889677,8.37903505 56.7822973,8.73655835 55.9840348,8.88709676 L58.8577651,13.7096774 L55.872279,13.7096774 L53.5094341,9.14516126 L52.2801162,9.14516126 L52.2801162,13.7096774 L49.78955,13.7096774 L49.78955,2.29032256 Z M52.2801162,7.01612901 L53.7489116,7.01612901 C53.9724249,7.01612901 54.2092392,7.00806458 54.4593613,6.99193546 C54.7094838,6.97580635 54.9356544,6.92741976 55.1378811,6.84677418 C55.3401077,6.76612861 55.50774,6.6397858 55.6407838,6.46774191 C55.7738275,6.29569805 55.8403486,6.05376498 55.8403486,5.74193546 C55.8403486,5.45161143 55.7818102,5.22043097 55.6647315,5.04838707 C55.5476532,4.87634322 55.3986465,4.74462408 55.2177069,4.65322581 C55.0367673,4.56182749 54.8292223,4.50000014 54.5950653,4.46774191 C54.3609086,4.43548368 54.1320765,4.41935481 53.9085632,4.41935481 L52.2801162,4.41935481 L52.2801162,7.01612901 Z M67.0478957,2.29032256 L69.1074023,2.29032256 L74.0246738,13.7096774 L71.2148043,13.7096774 L70.2409289,11.2903226 L65.8505082,11.2903226 L64.9085632,13.7096774 L62.1625546,13.7096774 L67.0478957,2.29032256 Z M68.0058056,5.61290321 L66.6328011,9.16129029 L69.3947752,9.16129029 L68.0058056,5.61290321 Z M78.3512336,2.29032256 L82.0870831,2.29032256 C82.9917801,2.29032256 83.8512299,2.39247207 84.6654573,2.59677416 C85.4796848,2.80107628 86.1901279,3.13171811 86.7968071,3.58870966 C87.4034866,4.04570117 87.8850977,4.63978127 88.2416547,5.37096774 C88.5982118,6.10215417 88.7764878,6.98924208 88.7764878,8.03225806 C88.7764878,8.95699387 88.6035335,9.77150185 88.2576201,10.4758064 C87.9117064,11.180111 87.4460604,11.771503 86.8606679,12.25 C86.2752754,12.728497 85.5994233,13.0913966 84.8330917,13.3387097 C84.0667597,13.5860227 83.2631876,13.7096774 82.4223514,13.7096774 L78.3512336,13.7096774 L78.3512336,2.29032256 Z M80.8417998,11.3870968 L82.1349785,11.3870968 C82.7097272,11.3870968 83.2445549,11.3279576 83.7394778,11.2096774 C84.2344003,11.0913972 84.6627946,10.8951627 85.0246738,10.6209677 C85.3865525,10.3467728 85.6712619,9.98656134 85.8788102,9.54032257 C86.0863581,9.09408376 86.1901308,8.54839029 86.1901308,7.90322577 C86.1901308,7.3440832 86.0863581,6.85752894 85.8788102,6.44354836 C85.6712619,6.02956782 85.3918742,5.68817338 85.0406388,5.41935483 C84.6894034,5.15053629 84.276974,4.94892537 83.8033382,4.81451612 C83.3297028,4.68010683 82.8321268,4.61290319 82.3105951,4.61290319 L80.8417998,4.61290319 L80.8417998,11.3870968 Z M93.6298985,2.29032256 L96.1204647,2.29032256 L96.1204647,13.7096774 L93.6298985,13.7096774 L93.6298985,2.29032256 Z M107.16836,5.08064514 C106.966133,4.82257933 106.692068,4.63172103 106.346154,4.50806448 C106.00024,4.38440798 105.672958,4.32258062 105.364296,4.32258062 C105.183357,4.32258062 104.997099,4.34408578 104.805515,4.38709675 C104.613932,4.43010772 104.432996,4.49731136 104.2627,4.58870964 C104.092404,4.68010796 103.95404,4.80107448 103.847605,4.95161289 C103.74117,5.10215125 103.687954,5.28494516 103.687954,5.49999999 C103.687954,5.84408774 103.815674,6.10752597 104.071118,6.29032256 C104.326561,6.47311916 104.648522,6.62903159 105.03701,6.75806451 C105.425498,6.88709739 105.843249,7.01612838 106.290276,7.14516126 C106.737303,7.27419418 107.155054,7.45698805 107.543542,7.69354836 C107.932029,7.93010868 108.25399,8.24730983 108.509434,8.64516129 C108.764878,9.04301271 108.892598,9.57526546 108.892598,10.2419355 C108.892598,10.8763472 108.775521,11.4301051 108.541365,11.9032258 C108.307208,12.3763464 107.990568,12.7688156 107.591437,13.0806451 C107.192306,13.3924747 106.729321,13.6236552 106.202467,13.7741935 C105.675615,13.9247319 105.1195,14 104.534108,14 C103.799706,14 103.118532,13.8870979 102.490566,13.6612903 C101.8626,13.4354827 101.277216,13.069895 100.734398,12.5645161 L102.506531,10.5967742 C102.761975,10.9408619 103.083936,11.2069883 103.472424,11.3951613 C103.860912,11.5833343 104.262698,11.6774193 104.677794,11.6774193 C104.880021,11.6774193 105.084905,11.653226 105.292453,11.6048387 C105.500001,11.5564513 105.68626,11.4838714 105.851234,11.3870968 C106.016208,11.2903221 106.14925,11.1666674 106.250363,11.016129 C106.351476,10.8655906 106.402032,10.6881731 106.402032,10.4838709 C106.402032,10.1397832 106.271651,9.86828053 106.010885,9.66935482 C105.75012,9.47042911 105.422837,9.30107596 105.029028,9.16129029 C104.635218,9.02150467 104.209485,8.8817211 103.751814,8.74193548 C103.294144,8.60214981 102.86841,8.41397966 102.474601,8.17741934 C102.080792,7.94085903 101.753509,7.62903417 101.492743,7.24193545 C101.231978,6.85483677 101.101597,6.34408917 101.101597,5.7096774 C101.101597,5.0967711 101.221334,4.55914207 101.460813,4.09677419 C101.700292,3.63440626 102.019592,3.24731337 102.418723,2.93548385 C102.817854,2.62365434 103.278179,2.38978569 103.79971,2.23387095 C104.321241,2.07795617 104.85873,2 105.412192,2 C106.050801,2 106.668115,2.09139693 107.264151,2.27419353 C107.860187,2.45699013 108.397675,2.7634387 108.876633,3.19354835 L107.16836,5.08064514 Z M114.033382,2.29032256 L121.712627,2.29032256 L121.712627,4.61290319 L116.523948,4.61290319 L116.523948,6.74193548 L121.425254,6.74193548 L121.425254,9.0645161 L116.523948,9.0645161 L116.523948,11.3870968 L122,11.3870968 L122,13.7096774 L114.033382,13.7096774 L114.033382,2.29032256 Z" id="PYRADISE" fill="#182A43"></path>
        </g>
    </g>
</svg>