<?xml version="1.0" encoding="UTF-8"?>
<svg width="200px" height="200px" viewBox="0 0 200 200" version="1.1" xmlns="http://www.w3.org/2000/svg" xmlns:xlink="http://www.w3.org/1999/xlink">
    <!-- Generator: Sketch 50.2 (55047) - http://www.bohemiancoding.com/sketch -->
    <title>pyradise-logo-square</title>
    <desc>Created with Sketch.</desc>
    <defs></defs>
    <g id="Page-1" stroke="none" stroke-width="1" fill="none" fill-rule="evenodd">
        <g id="pyradise-logo-square" fill-rule="nonzero">
            <g id="logo" transform="translate(18.000000, 0.000000)">
                <polygon id="Combined-Shape" fill="#304F7C" points="123 86.839025 82.6576183 151 54 151 108.702835 64"></polygon>
                <polygon id="Combined-Shape" fill="#182A43" points="0 151 67.6676283 42.7410668 48.9567899 12.806289 69.6169173 0 82.0000002 19.8112358 94.3830828 0 115.04321 12.806289 96.3323717 42.7410668 164 151 135.335257 151 82.0000002 65.6708976 28.6647434 151"></polygon>
            </g>
            <path d="M0,175.594923 L8.4825029,175.594923 C9.66511378,175.594923 10.7832019,175.705093 11.8368007,175.925436 C12.8903994,176.145779 13.8095968,176.525865 14.5944204,177.065706 C15.3792441,177.605546 16.0027931,178.332668 16.4650865,179.247091 C16.9273799,180.161515 17.1585231,181.31279 17.1585231,182.700952 C17.1585231,184.067079 16.9435061,185.212846 16.5134658,186.138287 C16.0834255,187.063727 15.4921289,187.801866 14.7395583,188.352723 C13.9869877,188.903581 13.0946675,189.294684 12.0625707,189.526044 C11.030474,189.757405 9.91238583,189.873083 8.70827293,189.873083 L5.03144663,189.873083 L5.03144663,198.995241 L0,198.995241 L0,175.594923 Z M5.03144663,185.510312 L8.38574432,185.510312 C8.83728664,185.510312 9.27269598,185.466244 9.69198527,185.378107 C10.1112746,185.28997 10.4875543,185.14124 10.8208355,184.931914 C11.1541167,184.722588 11.4228879,184.436147 11.6271571,184.072581 C11.8314262,183.709015 11.9335593,183.251809 11.9335593,182.700952 C11.9335593,182.106026 11.7991737,181.626787 11.5303985,181.26322 C11.2616233,180.899654 10.9175962,180.618721 10.4983069,180.420412 C10.0790175,180.222104 9.61135572,180.095408 9.09530734,180.040323 C8.57925897,179.985237 8.08472,179.957694 7.61167566,179.957694 L5.03144663,179.957694 L5.03144663,185.510312 Z M32.3818737,189.013749 L23.8026125,175.594923 L30.0596679,175.594923 L34.8975975,184.353517 L40.0258027,175.594923 L45.992582,175.594923 L37.4133205,189.013749 L37.4133205,198.995241 L32.3818737,198.995241 L32.3818737,189.013749 Z M54.1203031,175.594923 L62.9575873,175.594923 C64.1186966,175.594923 65.2206583,175.710602 66.2635059,175.941962 C67.3063535,176.173322 68.2201759,176.558917 69.0049991,177.098757 C69.7898231,177.638598 70.413372,178.365719 70.8756657,179.280143 C71.3379586,180.194566 71.5691021,181.334825 71.5691021,182.700952 C71.5691021,184.353525 71.1498193,185.758191 70.3112402,186.914992 C69.472662,188.071793 68.2470652,188.804423 66.6344137,189.112903 L72.4399295,198.995241 L66.4086444,198.995241 L61.6352203,189.641724 L59.1517499,189.641724 L59.1517499,198.995241 L54.1203031,198.995241 L54.1203031,175.594923 Z M59.1517499,185.278953 L62.1190132,185.278953 C62.5705553,185.278953 63.0489682,185.262427 63.5542653,185.229376 C64.0595632,185.196324 64.5164736,185.097172 64.9250123,184.931914 C65.333551,184.766657 65.6722021,184.507758 65.9409773,184.155209 C66.2097526,183.80266 66.3441385,183.306895 66.3441385,182.667901 C66.3441385,182.072974 66.2258792,181.599244 65.9893565,181.246695 C65.7528347,180.894146 65.4518111,180.62423 65.0862766,180.436938 C64.7207421,180.249646 64.3014593,180.122951 63.8284147,180.056848 C63.3553709,179.990745 62.8930839,179.957694 62.4415418,179.957694 L59.1517499,179.957694 L59.1517499,185.278953 Z M88.9856478,175.594923 L93.1462672,175.594923 L103.080149,198.995241 L97.403645,198.995241 L95.43622,194.037546 L86.5666833,194.037546 L84.6637641,198.995241 L79.1162719,198.995241 L88.9856478,175.594923 Z M90.9208195,182.40349 L88.1470729,189.674775 L93.7268185,189.674775 L90.9208195,182.40349 Z M111.820674,175.594923 L119.367845,175.594923 C121.195515,175.594923 122.931778,175.804246 124.576682,176.222898 C126.221585,176.64155 127.656824,177.319094 128.882439,178.255553 C130.108054,179.192011 131.081005,180.409388 131.801323,181.907721 C132.52164,183.406054 132.881794,185.223857 132.881794,187.361185 C132.881794,189.256135 132.532391,190.925209 131.833576,192.368456 C131.13476,193.811703 130.194061,195.023572 129.01145,196.004098 C127.828839,196.984625 126.463481,197.728272 124.915337,198.235061 C123.367191,198.74185 121.743813,198.995241 120.045154,198.995241 L111.820674,198.995241 L111.820674,175.594923 Z M116.852121,194.235854 L119.464603,194.235854 C120.625712,194.235854 121.706172,194.114667 122.706016,193.87229 C123.705859,193.629912 124.571302,193.227792 125.302371,192.665918 C126.033439,192.104043 126.60861,191.365904 127.027899,190.451481 C127.447188,189.537057 127.65683,188.418833 127.65683,187.096774 C127.65683,185.95099 127.447188,184.953953 127.027899,184.105632 C126.60861,183.257311 126.04419,182.557732 125.334624,182.006875 C124.625057,181.456017 123.791867,181.04288 122.835027,180.767451 C121.878188,180.492022 120.872983,180.35431 119.819384,180.35431 L116.852121,180.35431 L116.852121,194.235854 Z M142.686664,175.594923 L147.71811,175.594923 L147.71811,198.995241 L142.686664,198.995241 L142.686664,175.594923 Z M170.037091,181.312797 C169.628552,180.783974 169.074884,180.392871 168.376069,180.139476 C167.677253,179.886082 167.016076,179.759387 166.392517,179.759387 C166.026984,179.759387 165.650704,179.803454 165.263667,179.891592 C164.876631,179.979729 164.511102,180.117441 164.16707,180.304733 C163.823037,180.492025 163.543516,180.739907 163.328495,181.048387 C163.113475,181.356867 163.005967,181.731445 163.005967,182.172131 C163.005967,182.877229 163.263987,183.417061 163.780036,183.791645 C164.296084,184.166228 164.94651,184.48572 165.731334,184.750132 C166.516157,185.014544 167.360099,185.278952 168.263184,185.543363 C169.166268,185.807775 170.010209,186.182353 170.795033,186.667107 C171.579857,187.151862 172.230283,187.801864 172.746332,188.617134 C173.26238,189.432403 173.5204,190.523085 173.5204,191.889212 C173.5204,193.189236 173.283881,194.323986 172.810838,195.293496 C172.337793,196.263005 171.698118,197.067245 170.891792,197.70624 C170.085466,198.345235 169.150143,198.818965 168.085793,199.127446 C167.021444,199.435926 165.897979,199.590164 164.715369,199.590164 C163.231729,199.590164 161.855621,199.358807 160.587002,198.896087 C159.318384,198.433366 158.13579,197.684211 157.039188,196.648599 L160.619255,192.616341 C161.135304,193.321438 161.78573,193.866779 162.570553,194.25238 C163.355377,194.63798 164.167066,194.830777 165.005644,194.830777 C165.414183,194.830777 165.82809,194.781201 166.24738,194.682047 C166.666669,194.582892 167.042949,194.434163 167.37623,194.235854 C167.709511,194.037545 167.978283,193.784155 168.182551,193.475674 C168.386821,193.167194 168.488954,192.803633 168.488954,192.384981 C168.488954,191.679884 168.225558,191.123526 167.698758,190.715891 C167.171959,190.308256 166.510782,189.961221 165.715207,189.674775 C164.919633,189.388329 164.059565,189.101888 163.134979,188.815442 C162.210392,188.528996 161.350324,188.143401 160.55475,187.658646 C159.759175,187.173891 159.097998,186.534906 158.571198,185.741671 C158.044399,184.948436 157.781003,183.901822 157.781003,182.601798 C157.781003,181.345842 158.022898,180.244144 158.506693,179.296668 C158.990488,178.349193 159.635539,177.55597 160.441865,176.916975 C161.24819,176.27798 162.178139,175.798741 163.231737,175.479244 C164.285335,175.159746 165.371171,175 166.489276,175 C167.779397,175 169.026495,175.187289 170.230608,175.561872 C171.434722,175.936455 172.520557,176.564424 173.488147,177.445796 L170.037091,181.312797 Z M183.905822,175.594923 L199.419449,175.594923 L199.419449,180.35431 L188.937268,180.35431 L188.937268,184.717081 L198.838897,184.717081 L198.838897,189.476467 L188.937268,189.476467 L188.937268,194.235854 L200,194.235854 L200,198.995241 L183.905822,198.995241 L183.905822,175.594923 Z" id="PYRADISE" fill="#182A43"></path>
        </g>
    </g>
</svg>